<svg width="137" height="50" viewBox="0 0 137 50" fill="none" xmlns="http://www.w3.org/2000/svg">
<path d="M5.66466 14.6011H4.03822L0.889602 0H2.51604L4.9974 12.0564L8.60476 0H10.1686L13.776 12.0147L16.2782 0H17.8421L14.6935 14.6011H13.067L9.37627 2.23189L5.66466 14.6011Z" fill="#292929"/>
<path d="M18.6936 14.6011V0H20.2992V6.52879H28.7858V0H30.3914V14.6011H28.7858V7.96805H20.2992V14.6011H18.6936Z" fill="#292929"/>
<path d="M30.6175 14.6011L36.6854 0H38.6246L44.6091 14.6011H42.8575L41.0226 10.0122H34.1415L32.2857 14.6011H30.6175ZM34.7045 8.63553H40.4596L37.6029 1.50183L34.7045 8.63553Z" fill="#292929"/>
<path d="M40.9137 1.43925V0H53.0703V1.43925H47.7948V14.6011H46.1892V1.43925H40.9137Z" fill="#292929"/>
<path d="M55.0727 14.6011L61.1406 0H63.0798L69.0643 14.6011H67.3127L65.4778 10.0122H58.5967L56.7409 14.6011H55.0727ZM59.1597 8.63553H64.9148L62.0581 1.50183L59.1597 8.63553Z" fill="#292929"/>
<path d="M69.2876 14.6011V0H79.7344V1.4184H70.8932V6.63309H76.69V8.03063H70.8932V14.6011H69.2876Z" fill="#292929"/>
<path d="M79.2427 1.43925V0H91.3993V1.43925H86.1238V14.6011H84.5182V1.43925H79.2427Z" fill="#292929"/>
<path d="M91.9036 14.6011V0H102.35V1.4184H93.5092V6.52879H99.2852V7.92633H93.5092V13.1827H102.434V14.6011H91.9036Z" fill="#292929"/>
<path d="M103.293 14.6011V0H109.549C110.967 0 112.113 0.389364 112.989 1.16809C113.865 1.93291 114.303 2.94109 114.303 4.19261C114.303 5.15212 114.018 5.97951 113.448 6.67481C112.892 7.3701 112.141 7.84985 111.196 8.11406L114.47 14.6011H112.697L109.569 8.32265H104.899V14.6011H103.293ZM109.444 1.43925H104.899V6.96683H109.444C110.417 6.96683 111.203 6.71652 111.801 6.21591C112.398 5.7014 112.697 5.02696 112.697 4.19261C112.697 3.35826 112.398 2.69078 111.801 2.19017C111.203 1.68956 110.417 1.43925 109.444 1.43925Z" fill="#292929"/>
<path d="M32.0116 34.0332C32.0116 36.3099 31.6126 38.4388 30.8145 40.4199C30.046 42.3714 28.9671 44.0568 27.5779 45.4761C26.2182 46.8658 24.5777 47.9746 22.6564 48.8025C20.7351 49.6008 18.6661 50 16.4492 50C14.1436 50 11.9859 49.586 9.97592 48.7581C7.96596 47.9302 6.22202 46.8066 4.74411 45.3874C3.29575 43.9385 2.14298 42.2383 1.28579 40.2868C0.428595 38.3353 0 36.236 0 33.9888C0 31.7416 0.413816 29.6423 1.24145 27.6908C2.09864 25.7393 3.25141 24.0539 4.69977 22.6346C6.17768 21.1858 7.92162 20.0474 9.93159 19.2195C11.9415 18.3916 14.0845 17.9776 16.3605 17.9776C18.9321 17.9776 21.3559 18.4951 23.6319 19.53C25.9078 20.5648 27.7848 21.9841 29.2627 23.7878L24.7846 27.9125C23.691 26.6115 22.42 25.621 20.9716 24.9409C19.5528 24.2313 18.0158 23.8765 16.3605 23.8765C14.9713 23.8765 13.6707 24.1426 12.4588 24.6748C11.2765 25.1775 10.2419 25.8871 9.3552 26.8037C8.49801 27.6908 7.81817 28.7552 7.31568 29.9971C6.84274 31.2094 6.60628 32.54 6.60628 33.9888C6.60628 35.4377 6.85752 36.783 7.36001 38.0249C7.86251 39.2667 8.55713 40.346 9.44387 41.2626C10.3306 42.1496 11.3799 42.8593 12.5918 43.3915C13.8333 43.8942 15.1486 44.1455 16.5379 44.1455C18.7252 44.1455 20.6021 43.5393 22.1687 42.327C23.7649 41.1147 24.7551 39.5624 25.1393 37.6701H15.9615V32.0817H32.0116V34.0332Z" fill="#292929"/>
<path d="M33.295 49.5121V18.4655H48.4584C50.025 18.4655 51.4586 18.702 52.7591 19.1751C54.0892 19.6482 55.2272 20.3135 56.1731 21.171C57.119 21.9989 57.8579 23.0042 58.39 24.1869C58.922 25.3697 59.188 26.6707 59.188 28.09C59.188 30.0415 58.6264 31.786 57.5032 33.3235C56.4096 34.8611 54.9464 35.9995 53.1138 36.7387L59.9861 49.5121H52.8035L46.7292 37.6257H39.7239V49.5121H33.295ZM47.882 24.0095H39.7239V32.3478H47.882C49.3304 32.3478 50.4831 31.9634 51.3403 31.1946C52.2271 30.4258 52.6704 29.4205 52.6704 28.1787C52.6704 26.9368 52.2271 25.9315 51.3403 25.1627C50.4831 24.3939 49.3304 24.0095 47.882 24.0095Z" fill="#292929"/>
<path d="M57.746 49.5121L70.5152 18.4655H77.9639L90.5557 49.5121H83.5948L80.4468 41.3513H67.6333L64.441 49.5121H57.746ZM69.6285 36.2064H78.496L74.1066 24.7635L69.6285 36.2064Z" fill="#292929"/>
<path d="M90.0867 49.5121V18.4655H102.014C104.319 18.4655 106.477 18.8647 108.487 19.663C110.497 20.4613 112.226 21.5554 113.674 22.9451C115.152 24.3348 116.305 25.9906 117.133 27.9125C117.99 29.8345 118.418 31.8895 118.418 34.0775C118.418 36.236 117.99 38.2614 117.133 40.1538C116.305 42.0462 115.152 43.6872 113.674 45.0769C112.226 46.437 110.497 47.5163 108.487 48.3146C106.477 49.113 104.319 49.5121 102.014 49.5121H90.0867ZM101.969 24.1869H96.5157V43.7907H101.969C103.329 43.7907 104.6 43.5393 105.782 43.0367C106.994 42.534 108.043 41.854 108.93 40.9965C109.817 40.1094 110.512 39.0745 111.014 37.8918C111.516 36.7091 111.768 35.4377 111.768 34.0775C111.768 32.6878 111.516 31.3868 111.014 30.1745C110.512 28.9622 109.817 27.9125 108.93 27.0255C108.043 26.1384 106.994 25.4436 105.782 24.9409C104.6 24.4383 103.329 24.1869 101.969 24.1869Z" fill="#292929"/>
<path d="M129.511 35.2542C130.208 34.4314 130.269 33.2874 129.76 32.4035L135.301 25.8568L137 26.407L129.932 12.9381L115.538 8.12394L122.606 21.5928L133.614 25.293L128.502 31.3322C127.55 30.9719 126.435 31.2176 125.739 32.0404C125.101 32.7937 124.996 33.8174 125.372 34.6636L121.661 36.9238L122.515 38.3395L124.864 36.9089L123.838 39.4662L125.369 40.0821L126.99 36.0419C127.884 36.2771 128.874 36.0075 129.511 35.2542Z" fill="#292929"/>
<path d="M121.453 22.9548L117.727 15.8503L116.331 17.5003C114.806 19.3017 116.089 22.7325 119.315 25.4808C122.541 28.229 126.124 28.9432 127.649 27.1417L129.045 25.4918L121.453 22.9548Z" fill="#292929"/>
</svg>
