<svg width="569" height="208" viewBox="0 0 569 208" fill="none" xmlns="http://www.w3.org/2000/svg">
<path d="M23.5269 60.7407H16.7719L3.69477 0H10.4498L20.7556 50.1545L35.738 0H42.2332L57.2156 49.9809L67.608 0H74.1033L61.0262 60.7407H54.2711L38.9423 9.28465L23.5269 60.7407Z" fill="white"/>
<path d="M77.6398 60.7407V0H84.3082V27.1598H119.556V0H126.224V60.7407H119.556V33.1471H84.3082V60.7407H77.6398Z" fill="white"/>
<path d="M127.163 60.7407L152.365 0H160.419L185.274 60.7407H177.999L170.378 41.6508H141.799L134.092 60.7407H127.163ZM144.138 35.9238H168.04L156.175 6.24762L144.138 35.9238Z" fill="white"/>
<path d="M169.926 5.9873V0H220.416V5.9873H198.506V60.7407H191.837V5.9873H169.926Z" fill="white"/>
<path d="M228.733 60.7407L253.934 0H261.988L286.844 60.7407H279.569L271.948 41.6508H243.369L235.661 60.7407H228.733ZM245.707 35.9238H269.61L257.745 6.24762L245.707 35.9238Z" fill="white"/>
<path d="M287.771 60.7407V0H331.159V5.90053H294.44V27.5936H318.515V33.4074H294.44V60.7407H287.771Z" fill="white"/>
<path d="M329.118 5.9873V0H379.607V5.9873H357.697V60.7407H351.028V5.9873H329.118Z" fill="white"/>
<path d="M381.702 60.7407V0H425.09V5.90053H388.37V27.1598H412.36V32.9735H388.37V54.8402H425.437V60.7407H381.702Z" fill="white"/>
<path d="M429.006 60.7407V0H454.987C460.876 0 465.639 1.61975 469.276 4.85926C472.914 8.04092 474.732 12.2349 474.732 17.4413C474.732 21.4328 473.549 24.8748 471.181 27.7672C468.872 30.6596 465.754 32.6554 461.828 33.7545L475.425 60.7407H468.064L455.073 34.6222H435.674V60.7407H429.006ZM454.554 5.9873H435.674V28.982H454.554C458.595 28.982 461.857 27.9407 464.34 25.8582C466.822 23.7178 468.064 20.9122 468.064 17.4413C468.064 13.9704 466.822 11.1937 464.34 9.11111C461.857 7.02857 458.595 5.9873 454.554 5.9873Z" fill="white"/>
<path d="M132.953 141.578C132.953 151.049 131.296 159.906 127.981 168.147C124.79 176.265 120.309 183.276 114.539 189.18C108.892 194.962 102.078 199.574 94.0986 203.018C86.1189 206.339 77.5255 208 68.3182 208C58.7426 208 49.7808 206.278 41.4328 202.834C33.0849 199.39 25.8418 194.716 19.7036 188.811C13.6882 182.784 8.90039 175.712 5.34023 167.593C1.78008 159.475 0 150.742 0 141.393C0 132.045 1.7187 123.312 5.15609 115.194C8.71624 107.075 13.504 100.064 19.5195 94.16C25.6577 88.1328 32.9007 83.3972 41.2487 79.9531C49.5967 76.509 58.497 74.7869 67.9499 74.7869C78.6303 74.7869 88.697 76.9395 98.1498 81.2446C107.603 85.5497 115.398 91.4539 121.536 98.9571L102.938 116.116C98.3953 110.704 93.1165 106.583 87.101 103.754C81.2084 100.802 74.8247 99.3262 67.9499 99.3262C62.18 99.3262 56.7783 100.433 51.745 102.647C46.8345 104.738 42.5377 107.69 38.8548 111.504C35.2946 115.194 32.4711 119.622 30.3841 124.788C28.4199 129.831 27.4377 135.366 27.4377 141.393C27.4377 147.421 28.4812 153.017 30.5682 158.183C32.6552 163.35 35.5402 167.839 39.2231 171.652C42.906 175.342 47.2641 178.295 52.2975 180.509C57.4535 182.6 62.9165 183.645 68.6865 183.645C77.771 183.645 85.5665 181.124 92.073 176.081C98.7022 171.037 102.815 164.58 104.411 156.707H66.2926V133.46H132.953V141.578Z" fill="white"/>
<path d="M138.284 205.97V76.8165H201.261C207.768 76.8165 213.722 77.8005 219.124 79.7686C224.648 81.7366 229.374 84.5042 233.303 88.0713C237.231 91.5154 240.3 95.6975 242.51 100.618C244.72 105.538 245.825 110.95 245.825 116.854C245.825 124.972 243.492 132.23 238.827 138.626C234.285 145.022 228.208 149.758 220.597 152.833L249.139 205.97H219.308L194.08 156.523H164.985V205.97H138.284ZM198.868 99.8797H164.985V134.567H198.868C204.883 134.567 209.671 132.968 213.231 129.77C216.914 126.572 218.755 122.389 218.755 117.223C218.755 112.057 216.914 107.875 213.231 104.677C209.671 101.479 204.883 99.8797 198.868 99.8797Z" fill="white"/>
<path d="M239.836 205.97L292.87 76.8165H323.806L376.104 205.97H347.193L334.118 172.021H280.9L267.642 205.97H239.836ZM289.187 150.619H326.016L307.786 103.016L289.187 150.619Z" fill="white"/>
<path d="M374.156 205.97V76.8165H423.691C433.267 76.8165 442.228 78.477 450.576 81.7981C458.924 85.1192 466.106 89.6704 472.122 95.4515C478.26 101.233 483.047 108.121 486.485 116.116C490.045 124.111 491.825 132.66 491.825 141.762C491.825 150.742 490.045 159.168 486.485 167.04C483.047 174.912 478.26 181.739 472.122 187.52C466.106 193.178 458.924 197.668 450.576 200.989C442.228 204.31 433.267 205.97 423.691 205.97H374.156ZM423.507 100.618H400.857V182.169H423.507C429.154 182.169 434.433 181.124 439.344 179.033C444.377 176.942 448.735 174.112 452.418 170.545C456.101 166.855 458.986 162.55 461.073 157.63C463.16 152.71 464.203 147.421 464.203 141.762C464.203 135.981 463.16 130.569 461.073 125.526C458.986 120.483 456.101 116.116 452.418 112.426C448.735 108.736 444.377 105.845 439.344 103.754C434.433 101.663 429.154 100.618 423.507 100.618Z" fill="white"/>
<path d="M537.897 146.658C540.789 143.235 541.043 138.476 538.93 134.799L561.945 107.564L569 109.853L539.644 53.8227L479.862 33.7956L509.218 89.8261L554.938 105.219L533.707 130.342C529.753 128.843 525.121 129.865 522.228 133.288C519.58 136.422 519.145 140.68 520.707 144.201L505.293 153.603L508.84 159.492L518.596 153.541L514.333 164.179L520.691 166.741L527.427 149.934C531.137 150.913 535.248 149.791 537.897 146.658Z" fill="white"/>
<path d="M504.43 95.4921L488.955 65.9374L483.155 72.8013C476.822 80.2952 482.151 94.5671 495.55 106C508.949 117.433 523.828 120.404 530.161 112.91L535.961 106.046L504.43 95.4921Z" fill="white"/>
</svg>
