<svg width="40" height="40" viewBox="0 0 40 40" fill="none" xmlns="http://www.w3.org/2000/svg">
<g clip-path="url(#clip0)">
<path d="M0 15.8653V15.8617C0 15.8284 0.00187302 15.7953 0.00460815 15.7624C0.00539017 15.7535 0.00656128 15.7446 0.00749969 15.7356C0.0103149 15.7098 0.0139046 15.6842 0.0183563 15.6589C0.0200005 15.6494 0.0216408 15.6399 0.0235138 15.6304C0.0297661 15.5996 0.0368767 15.5689 0.0455475 15.5389C0.0464058 15.5359 0.0471115 15.5328 0.0479698 15.5299C0.0571098 15.4991 0.0677338 15.4689 0.0792999 15.439C0.0836716 15.4276 0.0885162 15.4164 0.0932808 15.4051C0.101795 15.3849 0.110939 15.365 0.120625 15.3454C0.126251 15.334 0.131641 15.3225 0.137577 15.3113C0.152187 15.2839 0.167732 15.257 0.184452 15.2307C0.190704 15.221 0.197578 15.2116 0.20414 15.202C0.21719 15.1828 0.230701 15.1641 0.244843 15.1458C0.252422 15.136 0.259998 15.1264 0.267891 15.1167C0.288437 15.0918 0.309689 15.0674 0.332344 15.0442C0.334141 15.0424 0.335857 15.0406 0.337654 15.0388C0.361874 15.0142 0.387657 14.991 0.414139 14.9685C0.417423 14.9656 0.420235 14.9625 0.423592 14.9598L2.42188 13.3016V8.20557C2.42188 6.69784 3.64851 5.4712 5.15625 5.4712H11.8575L17.2559 0.991118C18.8461 -0.328257 21.1541 -0.328257 22.7441 0.991118L28.1425 5.47112H34.8438C36.3515 5.47112 37.5781 6.69776 37.5781 8.20549V13.3015L39.5765 14.9599C39.5798 14.9627 39.5827 14.9658 39.5859 14.9686C39.6124 14.9911 39.6382 15.0143 39.6624 15.0389C39.6642 15.0407 39.6659 15.0426 39.6677 15.0444C39.6903 15.0676 39.7116 15.092 39.7322 15.1169C39.7401 15.1264 39.7477 15.1362 39.7552 15.146C39.7694 15.1643 39.7829 15.1831 39.7959 15.2021C39.8025 15.2117 39.8094 15.2211 39.8156 15.2309C39.8323 15.2571 39.8479 15.2839 39.8625 15.3114C39.8685 15.3227 39.8739 15.3342 39.8795 15.3456C39.8891 15.3652 39.8982 15.3851 39.9068 15.4053C39.9116 15.4165 39.9164 15.4278 39.9208 15.4392C39.9323 15.469 39.943 15.4992 39.9521 15.53C39.953 15.533 39.9537 15.536 39.9545 15.539C39.9632 15.5691 39.9703 15.5997 39.9766 15.6306C39.9784 15.6401 39.9801 15.6496 39.9817 15.6591C39.9862 15.6844 39.9898 15.7099 39.9926 15.7357C39.9935 15.7447 39.9947 15.7536 39.9955 15.7626C39.9981 15.7953 40 15.8284 40 15.8617V15.8653V15.8659V35.7039C40 36.9319 39.4814 38.0403 38.6527 38.8242C38.6291 38.8477 38.6055 38.871 38.5804 38.8921C37.8181 39.5807 36.8088 40.0007 35.7031 40.0007H4.29688C3.19109 40.0007 2.18172 39.5807 1.41938 38.8919C1.39445 38.8708 1.37102 38.8478 1.34766 38.8244C0.518749 38.0406 0 36.932 0 35.7038V15.8659C0 15.8657 0 15.8655 0 15.8653ZM34.8438 7.81487H5.15625C4.94086 7.81487 4.76562 7.9901 4.76562 8.20549V17.3213L5.42875 17.8716L18.7527 28.9289C19.4754 29.5286 20.5246 29.5285 21.2473 28.9289L34.5712 17.8717L35.2344 17.3213V8.20549C35.2344 7.9901 35.0591 7.81487 34.8438 7.81487ZM37.6562 35.7039V18.3571L37.1522 18.7754C37.1519 18.7756 37.1516 18.776 37.1512 18.7762L25.7084 28.2724L37.5363 36.378C37.6138 36.1678 37.6562 35.9407 37.6562 35.7039ZM23.833 29.8286L22.7441 30.7324C21.1541 32.0519 18.8459 32.0518 17.2559 30.7324L16.167 29.8286L4.74352 37.6571H35.2566L23.833 29.8286ZM14.2916 28.2724L2.84883 18.7762C2.84851 18.776 2.8482 18.7756 2.84789 18.7754L2.34383 18.3571V35.7039C2.34383 35.9407 2.38625 36.1678 2.46383 36.378L14.2916 28.2724ZM21.2473 2.79479C20.5246 2.19502 19.4754 2.19502 18.7527 2.79479L15.5276 5.4712H24.4724L21.2473 2.79479Z" fill="white"/>
<path d="M29.7266 12.8903C29.7266 13.5374 29.2019 14.0621 28.5547 14.0621H17.4609C16.8138 14.0621 16.2891 13.5374 16.2891 12.8903C16.2891 12.2431 16.8138 11.7184 17.4609 11.7184H28.5547C29.2019 11.7184 29.7266 12.2431 29.7266 12.8903Z" fill="white"/>
<path d="M28.5547 18.7496H11.4453C10.8994 18.7496 10.442 18.3757 10.3118 17.8704C10.2877 17.7767 10.2734 17.679 10.2734 17.5778C10.2734 16.9306 10.7981 16.4059 11.4453 16.4059H28.5547C29.2019 16.4059 29.7266 16.9306 29.7266 17.5778C29.7266 17.679 29.7123 17.7767 29.6882 17.8704C29.558 18.3758 29.1006 18.7496 28.5547 18.7496Z" fill="white"/>
</g>
<defs>
<clipPath id="clip0">
<rect width="40" height="40" fill="white" transform="matrix(-1 0 0 1 40 0)"/>
</clipPath>
</defs>
</svg>
